<mxfile host="app.diagrams.net" agent="Mozilla/5.0 (Macintosh; Intel Mac OS X 10_15_7) AppleWebKit/537.36 (KHTML, like Gecko) Chrome/129.0.0.0 Safari/537.36" version="24.7.17">
  <diagram name="Page-1" id="tiXDSWIPkGYYEQcdloHo">
    <mxGraphModel dx="702" dy="1145" grid="0" gridSize="10" guides="1" tooltips="1" connect="1" arrows="1" fold="1" page="0" pageScale="1" pageWidth="850" pageHeight="1100" math="0" shadow="0">
      <root>
        <mxCell id="0" />
        <mxCell id="1" parent="0" />
        <mxCell id="yCbw31qfv2_exbOGl7LV-3" value="" style="endArrow=classic;html=1;rounded=0;entryX=0.5;entryY=0;entryDx=0;entryDy=0;exitX=0.5;exitY=1;exitDx=0;exitDy=0;" edge="1" parent="1" source="yCbw31qfv2_exbOGl7LV-4" target="yCbw31qfv2_exbOGl7LV-5">
          <mxGeometry width="50" height="50" relative="1" as="geometry">
            <mxPoint x="198" y="-43" as="sourcePoint" />
            <mxPoint x="181" y="-67" as="targetPoint" />
          </mxGeometry>
        </mxCell>
        <mxCell id="yCbw31qfv2_exbOGl7LV-4" value="RRTStart" style="ellipse;whiteSpace=wrap;html=1;" vertex="1" parent="1">
          <mxGeometry x="122" y="-188" width="120" height="80" as="geometry" />
        </mxCell>
        <mxCell id="yCbw31qfv2_exbOGl7LV-8" style="edgeStyle=orthogonalEdgeStyle;rounded=0;orthogonalLoop=1;jettySize=auto;html=1;exitX=0.5;exitY=1;exitDx=0;exitDy=0;entryX=0.5;entryY=0;entryDx=0;entryDy=0;" edge="1" parent="1" source="yCbw31qfv2_exbOGl7LV-5" target="yCbw31qfv2_exbOGl7LV-6">
          <mxGeometry relative="1" as="geometry" />
        </mxCell>
        <mxCell id="yCbw31qfv2_exbOGl7LV-5" value="-Create environment&lt;div&gt;-define start goal&lt;/div&gt;&lt;div&gt;-visualize obstacle&lt;/div&gt;" style="rounded=0;whiteSpace=wrap;html=1;" vertex="1" parent="1">
          <mxGeometry x="122" y="-78" width="120" height="79" as="geometry" />
        </mxCell>
        <mxCell id="yCbw31qfv2_exbOGl7LV-11" value="true" style="edgeStyle=orthogonalEdgeStyle;rounded=0;orthogonalLoop=1;jettySize=auto;html=1;exitX=0.5;exitY=1;exitDx=0;exitDy=0;entryX=0.5;entryY=0;entryDx=0;entryDy=0;" edge="1" parent="1" source="yCbw31qfv2_exbOGl7LV-6" target="yCbw31qfv2_exbOGl7LV-9">
          <mxGeometry relative="1" as="geometry" />
        </mxCell>
        <mxCell id="yCbw31qfv2_exbOGl7LV-6" value="for numNodes" style="rhombus;whiteSpace=wrap;html=1;" vertex="1" parent="1">
          <mxGeometry x="122" y="37" width="118" height="80" as="geometry" />
        </mxCell>
        <mxCell id="yCbw31qfv2_exbOGl7LV-9" value="-q_rand selec&lt;div&gt;-q_near selec&lt;/div&gt;" style="whiteSpace=wrap;html=1;aspect=fixed;" vertex="1" parent="1">
          <mxGeometry x="135" y="142" width="94" height="94" as="geometry" />
        </mxCell>
        <mxCell id="yCbw31qfv2_exbOGl7LV-13" value="steer" style="ellipse;whiteSpace=wrap;html=1;" vertex="1" parent="1">
          <mxGeometry x="121" y="269" width="120" height="80" as="geometry" />
        </mxCell>
        <mxCell id="yCbw31qfv2_exbOGl7LV-14" value="" style="endArrow=classic;html=1;rounded=0;exitX=0.5;exitY=1;exitDx=0;exitDy=0;entryX=0.5;entryY=0;entryDx=0;entryDy=0;" edge="1" parent="1" source="yCbw31qfv2_exbOGl7LV-9" target="yCbw31qfv2_exbOGl7LV-13">
          <mxGeometry width="50" height="50" relative="1" as="geometry">
            <mxPoint x="175" y="200" as="sourcePoint" />
            <mxPoint x="225" y="150" as="targetPoint" />
          </mxGeometry>
        </mxCell>
        <mxCell id="yCbw31qfv2_exbOGl7LV-15" value="noCollision" style="ellipse;whiteSpace=wrap;html=1;" vertex="1" parent="1">
          <mxGeometry x="121" y="376" width="120" height="80" as="geometry" />
        </mxCell>
        <mxCell id="yCbw31qfv2_exbOGl7LV-16" value="" style="endArrow=classic;html=1;rounded=0;exitX=0.5;exitY=1;exitDx=0;exitDy=0;entryX=0.5;entryY=0;entryDx=0;entryDy=0;" edge="1" parent="1" source="yCbw31qfv2_exbOGl7LV-13" target="yCbw31qfv2_exbOGl7LV-15">
          <mxGeometry width="50" height="50" relative="1" as="geometry">
            <mxPoint x="175" y="200" as="sourcePoint" />
            <mxPoint x="225" y="150" as="targetPoint" />
          </mxGeometry>
        </mxCell>
        <mxCell id="yCbw31qfv2_exbOGl7LV-18" value="ccw" style="ellipse;whiteSpace=wrap;html=1;" vertex="1" parent="1">
          <mxGeometry x="401" y="376" width="120" height="80" as="geometry" />
        </mxCell>
        <mxCell id="yCbw31qfv2_exbOGl7LV-19" value="" style="endArrow=classic;html=1;rounded=0;exitX=1;exitY=0.5;exitDx=0;exitDy=0;entryX=0;entryY=0.5;entryDx=0;entryDy=0;" edge="1" parent="1" source="yCbw31qfv2_exbOGl7LV-15" target="yCbw31qfv2_exbOGl7LV-18">
          <mxGeometry width="50" height="50" relative="1" as="geometry">
            <mxPoint x="175" y="345" as="sourcePoint" />
            <mxPoint x="225" y="295" as="targetPoint" />
          </mxGeometry>
        </mxCell>
        <mxCell id="yCbw31qfv2_exbOGl7LV-20" value="Intersect object?" style="edgeLabel;html=1;align=center;verticalAlign=middle;resizable=0;points=[];" vertex="1" connectable="0" parent="yCbw31qfv2_exbOGl7LV-19">
          <mxGeometry x="-0.3402" relative="1" as="geometry">
            <mxPoint as="offset" />
          </mxGeometry>
        </mxCell>
        <mxCell id="yCbw31qfv2_exbOGl7LV-21" value="-q_new" style="whiteSpace=wrap;html=1;aspect=fixed;" vertex="1" parent="1">
          <mxGeometry x="143.5" y="487" width="77" height="77" as="geometry" />
        </mxCell>
        <mxCell id="yCbw31qfv2_exbOGl7LV-22" value="" style="endArrow=classic;html=1;rounded=0;exitX=0.5;exitY=1;exitDx=0;exitDy=0;entryX=0.5;entryY=0;entryDx=0;entryDy=0;" edge="1" parent="1" source="yCbw31qfv2_exbOGl7LV-15" target="yCbw31qfv2_exbOGl7LV-21">
          <mxGeometry width="50" height="50" relative="1" as="geometry">
            <mxPoint x="175" y="392" as="sourcePoint" />
            <mxPoint x="225" y="342" as="targetPoint" />
          </mxGeometry>
        </mxCell>
        <mxCell id="yCbw31qfv2_exbOGl7LV-23" value="" style="endArrow=classic;html=1;rounded=0;exitX=0.5;exitY=1;exitDx=0;exitDy=0;" edge="1" parent="1" source="yCbw31qfv2_exbOGl7LV-21" target="yCbw31qfv2_exbOGl7LV-24">
          <mxGeometry width="50" height="50" relative="1" as="geometry">
            <mxPoint x="179" y="388" as="sourcePoint" />
            <mxPoint x="182" y="606" as="targetPoint" />
          </mxGeometry>
        </mxCell>
        <mxCell id="yCbw31qfv2_exbOGl7LV-24" value="- select near nodes&lt;div&gt;- select lower cost&lt;/div&gt;&lt;div&gt;- update q_new&lt;/div&gt;" style="rounded=0;whiteSpace=wrap;html=1;" vertex="1" parent="1">
          <mxGeometry x="122" y="601" width="120" height="60" as="geometry" />
        </mxCell>
        <mxCell id="yCbw31qfv2_exbOGl7LV-25" value="" style="endArrow=classic;html=1;rounded=0;exitX=0.008;exitY=0.633;exitDx=0;exitDy=0;exitPerimeter=0;entryX=0;entryY=0.5;entryDx=0;entryDy=0;" edge="1" parent="1" source="yCbw31qfv2_exbOGl7LV-24" target="yCbw31qfv2_exbOGl7LV-6">
          <mxGeometry width="50" height="50" relative="1" as="geometry">
            <mxPoint x="179" y="379" as="sourcePoint" />
            <mxPoint x="112" y="-150" as="targetPoint" />
            <Array as="points">
              <mxPoint x="12" y="639" />
              <mxPoint x="16" y="77" />
            </Array>
          </mxGeometry>
        </mxCell>
        <mxCell id="yCbw31qfv2_exbOGl7LV-26" value="-final path&lt;div&gt;-addition of nodes&lt;/div&gt;" style="rounded=0;whiteSpace=wrap;html=1;" vertex="1" parent="1">
          <mxGeometry x="363" y="47" width="120" height="60" as="geometry" />
        </mxCell>
        <mxCell id="yCbw31qfv2_exbOGl7LV-27" value="false" style="endArrow=classic;html=1;rounded=0;exitX=1;exitY=0.5;exitDx=0;exitDy=0;entryX=0;entryY=0.5;entryDx=0;entryDy=0;" edge="1" parent="1" source="yCbw31qfv2_exbOGl7LV-6" target="yCbw31qfv2_exbOGl7LV-26">
          <mxGeometry width="50" height="50" relative="1" as="geometry">
            <mxPoint x="173" y="298" as="sourcePoint" />
            <mxPoint x="223" y="248" as="targetPoint" />
          </mxGeometry>
        </mxCell>
      </root>
    </mxGraphModel>
  </diagram>
</mxfile>
